<svg width="341" height="131" viewBox="0 0 341 131" fill="none" xmlns="http://www.w3.org/2000/svg">
    <path d="M20 63.6889V85H41.3111L36.8667 80.5556H24.4444V68.1333L20 63.6889Z" fill="black"/>
    <path d="M77.4889 96.7555L71.1111 90.2889V96.1111H8.88888V86.8889H13.3333V83.3333H8.88888V68.5555H13.3333V65H8.88888V50.7778H13.3333V47.2222H8.88888V34.8L44.3111 70.0222V63.7555L8.24443 27.8667C7.93361 27.5533 7.5365 27.3395 7.10373 27.2527C6.67095 27.1659 6.22213 27.2099 5.81448 27.3792C5.40682 27.5484 5.05881 27.8353 4.81481 28.2031C4.5708 28.5709 4.44187 29.003 4.44443 29.4444V98.3333C4.44443 98.9227 4.67856 99.4879 5.09531 99.9047C5.51206 100.321 6.07729 100.556 6.66666 100.556H75.9111C76.3525 100.558 76.7846 100.429 77.1525 100.185C77.5203 99.9412 77.8071 99.5932 77.9764 99.1855C78.1456 98.7778 78.1897 98.329 78.1028 97.8962C78.016 97.4635 77.8023 97.0664 77.4889 96.7555Z"
          fill="black"/>
    <path d="M53.3334 91.6667H62.2222C63.401 91.6667 64.5314 91.1984 65.3649 90.3649C66.1984 89.5314 66.6667 88.401 66.6667 87.2222V44.3333L61.5556 34.9333C61.1603 34.2485 60.5894 33.6815 59.9019 33.2909C59.2144 32.9003 58.4351 32.7001 57.6445 32.7111C56.8359 32.7175 56.0444 32.9444 55.3552 33.3673C54.666 33.7902 54.1053 34.3931 53.7334 35.1111L48.8889 44.3778V87.2222C48.8889 88.401 49.3572 89.5314 50.1907 90.3649C51.0242 91.1984 52.1546 91.6667 53.3334 91.6667ZM53.3334 45.4445L57.6445 37.0667L62.2222 45.4667V78.3333H53.3334V45.4445ZM53.3334 81.9556H62.2222V87.3778H53.3334V81.9556Z"
          fill="black"/>
    <path d="M89.3319 80.4C87.5719 80.4 86.0385 80.0667 84.7319 79.4C83.4519 78.7333 82.4519 77.7733 81.7319 76.52C81.0385 75.24 80.6919 73.7333 80.6919 72V58.8C80.6919 57.04 81.0385 55.5333 81.7319 54.28C82.4519 53.0267 83.4519 52.0667 84.7319 51.4C86.0385 50.7333 87.5719 50.4 89.3319 50.4C91.0919 50.4 92.6119 50.7467 93.8919 51.44C95.1719 52.1067 96.1585 53.0667 96.8519 54.32C97.5452 55.5733 97.8919 57.0667 97.8919 58.8H94.2919C94.2919 57.1467 93.8519 55.88 92.9719 55C92.1185 54.0933 90.9052 53.64 89.3319 53.64C87.7585 53.64 86.5185 54.08 85.6119 54.96C84.7319 55.84 84.2919 57.1067 84.2919 58.76V72C84.2919 73.6533 84.7319 74.9333 85.6119 75.84C86.5185 76.72 87.7585 77.16 89.3319 77.16C90.9052 77.16 92.1185 76.72 92.9719 75.84C93.8519 74.9333 94.2919 73.6533 94.2919 72H97.8919C97.8919 73.7067 97.5452 75.2 96.8519 76.48C96.1585 77.7333 95.1719 78.7067 93.8919 79.4C92.6119 80.0667 91.0919 80.4 89.3319 80.4ZM116.156 80C114.876 80 113.756 79.7467 112.796 79.24C111.836 78.7333 111.09 78.0133 110.556 77.08C110.023 76.1467 109.756 75.0533 109.756 73.8V54.08H102.356V50.8H113.356V73.8C113.356 74.7067 113.61 75.4267 114.116 75.96C114.623 76.4667 115.303 76.72 116.156 76.72H123.156V80H116.156ZM137.141 80.32C135.381 80.32 133.861 79.9867 132.581 79.32C131.301 78.6533 130.301 77.6933 129.581 76.44C128.887 75.16 128.541 73.6533 128.541 71.92V66.08C128.541 64.32 128.887 62.8133 129.581 61.56C130.301 60.3067 131.301 59.3467 132.581 58.68C133.861 58.0133 135.381 57.68 137.141 57.68C138.901 57.68 140.421 58.0133 141.701 58.68C142.981 59.3467 143.967 60.3067 144.661 61.56C145.381 62.8133 145.741 64.3067 145.741 66.04V71.92C145.741 73.6533 145.381 75.16 144.661 76.44C143.967 77.6933 142.981 78.6533 141.701 79.32C140.421 79.9867 138.901 80.32 137.141 80.32ZM137.141 77.12C138.714 77.12 139.941 76.68 140.821 75.8C141.701 74.92 142.141 73.6267 142.141 71.92V66.08C142.141 64.3733 141.701 63.08 140.821 62.2C139.941 61.32 138.714 60.88 137.141 60.88C135.594 60.88 134.367 61.32 133.461 62.2C132.581 63.08 132.141 64.3733 132.141 66.08V71.92C132.141 73.6267 132.581 74.92 133.461 75.8C134.367 76.68 135.594 77.12 137.141 77.12ZM161.085 80.4C158.552 80.4 156.525 79.6533 155.005 78.16C153.485 76.64 152.725 74.5867 152.725 72V58H156.325V72C156.325 73.6533 156.752 74.9467 157.605 75.88C158.458 76.7867 159.618 77.24 161.085 77.24C162.578 77.24 163.752 76.7867 164.605 75.88C165.485 74.9467 165.925 73.6533 165.925 72V58H169.525V72C169.525 74.5867 168.752 76.64 167.205 78.16C165.658 79.6533 163.618 80.4 161.085 80.4ZM183.829 80.4C181.643 80.4 179.869 79.6667 178.509 78.2C177.176 76.7333 176.509 74.7467 176.509 72.24V65.8C176.509 63.2667 177.176 61.2667 178.509 59.8C179.843 58.3333 181.616 57.6 183.829 57.6C185.643 57.6 187.096 58.0933 188.189 59.08C189.283 60.0667 189.829 61.3867 189.829 63.04L189.109 62.2H189.909L189.829 57.2V50.8H193.429V80H189.829V75.8H189.109L189.829 74.96C189.829 76.64 189.283 77.9733 188.189 78.96C187.096 79.92 185.643 80.4 183.829 80.4ZM185.029 77.28C186.523 77.28 187.696 76.8133 188.549 75.88C189.403 74.9467 189.829 73.6533 189.829 72V66C189.829 64.3467 189.403 63.0533 188.549 62.12C187.696 61.1867 186.523 60.72 185.029 60.72C183.509 60.72 182.309 61.1733 181.429 62.08C180.549 62.9867 180.109 64.2933 180.109 66V72C180.109 73.7067 180.549 75.0133 181.429 75.92C182.309 76.8267 183.509 77.28 185.029 77.28ZM204.214 87.2L207.454 78.64L199.294 58H203.294L208.414 71.6C208.6 72.0533 208.774 72.6 208.934 73.24C209.094 73.8533 209.227 74.3733 209.334 74.8C209.44 74.3733 209.574 73.8533 209.734 73.24C209.894 72.6 210.054 72.0533 210.214 71.6L215.014 58H218.894L208.054 87.2H204.214ZM224.878 80V50.76H242.078V54.04H228.398V63.76H241.038V67.04H228.478V80H224.878ZM257.063 80.32C255.303 80.32 253.783 79.9867 252.503 79.32C251.223 78.6533 250.223 77.6933 249.503 76.44C248.809 75.16 248.463 73.6533 248.463 71.92V66.08C248.463 64.32 248.809 62.8133 249.503 61.56C250.223 60.3067 251.223 59.3467 252.503 58.68C253.783 58.0133 255.303 57.68 257.063 57.68C258.823 57.68 260.343 58.0133 261.623 58.68C262.903 59.3467 263.889 60.3067 264.583 61.56C265.303 62.8133 265.663 64.3067 265.663 66.04V71.92C265.663 73.6533 265.303 75.16 264.583 76.44C263.889 77.6933 262.903 78.6533 261.623 79.32C260.343 79.9867 258.823 80.32 257.063 80.32ZM257.063 77.12C258.636 77.12 259.863 76.68 260.743 75.8C261.623 74.92 262.063 73.6267 262.063 71.92V66.08C262.063 64.3733 261.623 63.08 260.743 62.2C259.863 61.32 258.636 60.88 257.063 60.88C255.516 60.88 254.289 61.32 253.383 62.2C252.503 63.08 252.063 64.3733 252.063 66.08V71.92C252.063 73.6267 252.503 74.92 253.383 75.8C254.289 76.68 255.516 77.12 257.063 77.12ZM273.487 80V58H277.007V62.2H277.847L276.687 64.8C276.687 62.4267 277.194 60.64 278.207 59.44C279.247 58.2133 280.78 57.6 282.807 57.6C285.127 57.6 286.967 58.3333 288.327 59.8C289.714 61.24 290.407 63.2 290.407 65.68V67H286.807V66C286.807 64.2667 286.38 62.9467 285.527 62.04C284.7 61.1067 283.514 60.64 281.967 60.64C280.447 60.64 279.247 61.1067 278.367 62.04C277.514 62.9733 277.087 64.2933 277.087 66V80H273.487ZM304.991 80.4C302.458 80.4 300.431 79.6533 298.911 78.16C297.391 76.64 296.631 74.5867 296.631 72V58H300.231V72C300.231 73.6533 300.658 74.9467 301.511 75.88C302.365 76.7867 303.525 77.24 304.991 77.24C306.485 77.24 307.658 76.7867 308.511 75.88C309.391 74.9467 309.831 73.6533 309.831 72V58H313.431V72C313.431 74.5867 312.658 76.64 311.111 78.16C309.565 79.6533 307.525 80.4 304.991 80.4ZM319.656 80V58H322.816V60.64H323.536L322.976 61.6C322.976 60.3733 323.296 59.4 323.936 58.68C324.602 57.96 325.496 57.6 326.616 57.6C327.842 57.6 328.789 58.0533 329.456 58.96C330.122 59.8667 330.456 61.1467 330.456 62.8L329.376 60.64H331.056L330.296 61.6C330.296 60.3733 330.629 59.4 331.296 58.68C331.989 57.96 332.896 57.6 334.016 57.6C335.402 57.6 336.469 58.12 337.216 59.16C337.989 60.2 338.376 61.5733 338.376 63.28V80H335.056V63.24C335.056 62.3333 334.856 61.6267 334.456 61.12C334.082 60.6133 333.522 60.36 332.776 60.36C332.056 60.36 331.482 60.6133 331.056 61.12C330.656 61.6 330.456 62.2933 330.456 63.2V80H327.576V63.24C327.576 62.3067 327.362 61.6 326.936 61.12C326.536 60.6133 325.962 60.36 325.216 60.36C324.469 60.36 323.909 60.6133 323.536 61.12C323.162 61.6 322.976 62.2933 322.976 63.2V80H319.656Z"
          fill="black"/>
</svg>
